<svg width="31" height="51" viewBox="0 0 31 51" fill="none" xmlns="http://www.w3.org/2000/svg">
<g filter="url(#filter0_d)">
<path d="M14.5 40.593C10.7222 40.593 7.0991 38.9559 4.42781 36.0417C1.75651 33.1276 0.255798 29.1751 0.255798 25.0539C0.255798 24.6418 0.405875 24.2466 0.672982 23.9551C0.940146 23.6637 1.30246 23.5 1.68022 23.5C2.05797 23.5 2.42029 23.6637 2.68745 23.9551C2.95456 24.2466 3.10464 24.6418 3.10464 25.0539C3.10464 28.3509 4.30519 31.5129 6.44228 33.8442C8.5793 36.1755 11.4778 37.4852 14.5 37.4852C17.5222 37.4852 20.4207 36.1755 22.5577 33.8442C24.6948 31.5129 25.8953 28.3509 25.8953 25.0539C25.8953 24.6418 26.0454 24.2466 26.3125 23.9551C26.5797 23.6637 26.942 23.5 27.3197 23.5C27.3197 23.5 28.0598 23.6637 28.327 23.9551C28.5941 24.2466 28.7442 24.6418 28.7442 25.0539C28.7442 29.1751 27.2435 33.1276 24.5722 36.0417C21.9009 38.9559 18.2778 40.593 14.5 40.593Z" fill="#36393F"/>
<path d="M14.5 47.5015C14.0939 47.5015 13.7044 47.3402 13.4173 47.053C13.1301 46.7658 12.9688 46.3763 12.9688 45.9702V39.8452C12.9688 39.4391 13.1301 39.0496 13.4173 38.7624C13.7044 38.4753 14.0939 38.314 14.5 38.314C14.9061 38.314 15.2956 38.4753 15.5828 38.7624C15.8699 39.0496 16.0312 39.4391 16.0312 39.8452V45.9702C16.0312 46.3763 15.8699 46.7658 15.5828 47.053C15.2956 47.3402 14.9061 47.5015 14.5 47.5015Z" fill="#36393F"/>
<path d="M23.6163 9.82558C23.6163 4.7908 19.5348 0.709305 14.5 0.709305C9.46522 0.709305 5.38373 4.7908 5.38373 9.82558V25.7791C5.38373 30.8139 9.46522 34.8954 14.5 34.8954C19.5348 34.8954 23.6163 30.8139 23.6163 25.7791V9.82558Z" fill="#36393F"/>
</g>
<defs>
<filter id="filter0_d" x="0.255798" y="0.709305" width="30.4884" height="49.7922" filterUnits="userSpaceOnUse" color-interpolation-filters="sRGB">
<feFlood flood-opacity="0" result="BackgroundImageFix"/>
<feColorMatrix in="SourceAlpha" type="matrix" values="0 0 0 0 0 0 0 0 0 0 0 0 0 0 0 0 0 0 127 0" result="hardAlpha"/>
<feOffset dx="1" dy="2"/>
<feGaussianBlur stdDeviation="0.5"/>
<feComposite in2="hardAlpha" operator="out"/>
<feColorMatrix type="matrix" values="0 0 0 0 0 0 0 0 0 0 0 0 0 0 0 0 0 0 0.3 0"/>
<feBlend mode="normal" in2="BackgroundImageFix" result="effect1_dropShadow"/>
<feBlend mode="normal" in="SourceGraphic" in2="effect1_dropShadow" result="shape"/>
</filter>
</defs>
</svg>
