<svg width="600" height="330" viewBox="0 0 600 330" fill="none" xmlns="http://www.w3.org/2000/svg">
<path fill-rule="evenodd" clip-rule="evenodd" d="M257 53.5C257 40.5213 246.479 30 233.5 30H180.395C163.615 30 152 47.7203 152 64.5V64.5C152 112.825 112.825 152 64.5 152V152C47.7203 152 30 163.615 30 180.395V280C30 307.614 52.3858 330 80 330H550C577.614 330 600 307.614 600 280V80C600 52.3858 577.614 30 550 30H486.5C473.521 30 463 40.5213 463 53.5V53.5C463 66.4787 452.479 77 439.5 77H280.5C267.521 77 257 66.4787 257 53.5V53.5ZM170 267.5C170 260.044 176.044 254 183.5 254H498.5C505.956 254 512 260.044 512 267.5V267.5C512 274.956 505.956 281 498.5 281H183.5C176.044 281 170 274.956 170 267.5V267.5ZM512 188.5C512 181.044 505.956 175 498.5 175H183.5C176.044 175 170 181.044 170 188.5V188.5C170 195.956 176.044 202 183.5 202H498.5C505.956 202 512 195.956 512 188.5V188.5ZM116 268C116 254.745 126.745 244 140 244C153.255 244 164 254.745 164 268C164 281.255 153.255 292 140 292C126.745 292 116 281.255 116 268ZM140 165C126.745 165 116 175.745 116 189C116 202.255 126.745 213 140 213C153.255 213 164 202.255 164 189C164 175.745 153.255 165 140 165Z" fill="#2F3136"/>
<rect x="121.053" y="249.053" width="37.8947" height="37.8947" rx="18.9474" fill="#40444A"/>
<rect x="121.053" y="170.053" width="37.8947" height="37.8947" rx="18.9474" fill="#40444A"/>
</svg>
