<svg width="47" height="34" viewBox="0 0 47 34" fill="none" xmlns="http://www.w3.org/2000/svg">
<g filter="url(#filter0_d)">
<path fill-rule="evenodd" clip-rule="evenodd" d="M0 3.56322C0 1.59531 1.574 0 3.51562 0H37.9589C39.9006 0 41.4745 1.59531 41.4745 3.56322V10.4027V15.7708C41.4745 16.3509 41.5445 16.929 41.6827 17.492L44.8151 30.2464C44.8875 30.5421 44.5841 30.7877 44.3155 30.6507L34.6718 25.728C33.6907 25.2273 32.6076 24.9664 31.5091 24.9664H3.51562C1.574 24.9664 0 23.3711 0 21.4032V3.56322ZM3.51562 7.66092C3.51562 7.36574 3.75173 7.12644 4.04297 7.12644H13.8867C14.178 7.12644 14.4141 7.36574 14.4141 7.66092C14.4141 7.9561 14.178 8.1954 13.8867 8.1954H4.04297C3.75173 8.1954 3.51562 7.9561 3.51562 7.66092ZM20.918 10.6897C20.6267 10.6897 20.3906 10.929 20.3906 11.2241C20.3906 11.5193 20.6267 11.7586 20.918 11.7586H30.7617C31.053 11.7586 31.2891 11.5193 31.2891 11.2241C31.2891 10.929 31.053 10.6897 30.7617 10.6897H20.918ZM16.1719 7.66092C16.1719 7.36574 16.408 7.12644 16.6992 7.12644H20.5664C20.8576 7.12644 21.0938 7.36574 21.0938 7.66092C21.0938 7.9561 20.8576 8.1954 20.5664 8.1954H16.6992C16.408 8.1954 16.1719 7.9561 16.1719 7.66092ZM33.0469 11.2241C33.0469 10.929 33.283 10.6897 33.5742 10.6897H37.4414C37.7325 10.6897 37.9688 10.929 37.9688 11.2241C37.9688 11.5193 37.7325 11.7586 37.4414 11.7586H33.5742C33.283 11.7586 33.0469 11.5193 33.0469 11.2241ZM4.04297 14.2529C3.75173 14.2529 3.51562 14.4922 3.51562 14.7874C3.51562 15.0825 3.75173 15.3218 4.04297 15.3218H7.91016C8.20139 15.3218 8.4375 15.0825 8.4375 14.7874C8.4375 14.4922 8.20139 14.2529 7.91016 14.2529H4.04297ZM28.125 14.7874C28.125 14.4922 28.3611 14.2529 28.6523 14.2529H32.5195C32.8108 14.2529 33.0469 14.4922 33.0469 14.7874C33.0469 15.0825 32.8108 15.3218 32.5195 15.3218H28.6523C28.3611 15.3218 28.125 15.0825 28.125 14.7874ZM23.0273 7.12644C22.7361 7.12644 22.5 7.36574 22.5 7.66092C22.5 7.9561 22.7361 8.1954 23.0273 8.1954H37.4414C37.7325 8.1954 37.9688 7.9561 37.9688 7.66092C37.9688 7.36574 37.7325 7.12644 37.4414 7.12644H23.0273ZM3.51562 11.2241C3.51562 10.929 3.75173 10.6897 4.04297 10.6897H18.457C18.7483 10.6897 18.9844 10.929 18.9844 11.2241C18.9844 11.5193 18.7483 11.7586 18.457 11.7586H4.04297C3.75173 11.7586 3.51562 11.5193 3.51562 11.2241ZM11.7773 14.2529C11.4861 14.2529 11.25 14.4922 11.25 14.7874C11.25 15.0825 11.4861 15.3218 11.7773 15.3218H26.1914C26.4826 15.3218 26.7188 15.0825 26.7188 14.7874C26.7188 14.4922 26.4826 14.2529 26.1914 14.2529H11.7773Z" fill="#36393F"/>
</g>
<defs>
<filter id="filter0_d" x="0" y="0" width="46.8259" height="33.6897" filterUnits="userSpaceOnUse" color-interpolation-filters="sRGB">
<feFlood flood-opacity="0" result="BackgroundImageFix"/>
<feColorMatrix in="SourceAlpha" type="matrix" values="0 0 0 0 0 0 0 0 0 0 0 0 0 0 0 0 0 0 127 0" result="hardAlpha"/>
<feOffset dx="1" dy="2"/>
<feGaussianBlur stdDeviation="0.5"/>
<feComposite in2="hardAlpha" operator="out"/>
<feColorMatrix type="matrix" values="0 0 0 0 0 0 0 0 0 0 0 0 0 0 0 0 0 0 0.3 0"/>
<feBlend mode="normal" in2="BackgroundImageFix" result="effect1_dropShadow"/>
<feBlend mode="normal" in="SourceGraphic" in2="effect1_dropShadow" result="shape"/>
</filter>
</defs>
</svg>
